PathFileType	4	(X/Y/Z)	C:\Users\italobelli\Desktop\GitHub\PTbot_officialCBL\Personal_Results\SHRUG01_noisy2.trc
DataRate	CameraRate	NumFrames	NumMarkers	Units	OrigDataRate	OrigDataStartFrame	OrigNumFrames
110.888889	110.888889	38	9	m	110.888889	313	500
Frame#	Time		gu		centelbow		EpL		centpxt8		centijc7		ij		ts		aa		ai
			X1	Y1	Z1	X2	Y2	Z2	X3	Y3	Z3	X4	Y4	Z4	X5	Y5	Z5	X6	Y6	Z6	X7	Y7	Z7	X8	Y8	Z8	X9	Y9	Z9

313	2.8136	-0.079051	-0.014313	0.16616	-0.1044	-0.26033	0.19452	-0.081201	-0.25569	0.21646	-0.046816	-0.15316	-0.008669	-0.046816	0.031938	-0.008669	0	0	0	-0.13934	0.029556	0.055672	-0.1063	0.024677	0.17014	-0.16283	-0.081232	0.062943
314	2.8226	-0.079007	-0.014328	0.16609	-0.10452	-0.2603	0.19446	-0.081346	-0.25568	0.21643	-0.046816	-0.15316	-0.008669	-0.046816	0.031938	-0.008669	0	0	0	-0.13931	0.029553	0.055599	-0.10629	0.024653	0.17008	-0.16281	-0.081235	0.062867
315	2.8317	-0.078965	-0.014343	0.16602	-0.10464	-0.26028	0.19441	-0.081491	-0.25566	0.2164	-0.046816	-0.15316	-0.008669	-0.046816	0.031938	-0.008669	0	0	0	-0.13927	0.02955	0.055527	-0.10628	0.024631	0.17001	-0.16279	-0.081238	0.062792
316	2.8407	-0.078924	-0.014355	0.16595	-0.10475	-0.26025	0.19435	-0.081637	-0.25564	0.21638	-0.046816	-0.15316	-0.008669	-0.046816	0.031938	-0.008669	0	0	0	-0.13924	0.029549	0.055456	-0.10627	0.02461	0.16995	-0.16277	-0.08124	0.06272
317	2.8497	-0.078886	-0.014367	0.16588	-0.10487	-0.26023	0.1943	-0.081783	-0.25563	0.21635	-0.046816	-0.15316	-0.008669	-0.046816	0.031938	-0.008669	0	0	0	-0.13921	0.029547	0.055387	-0.10626	0.024592	0.16988	-0.16275	-0.081241	0.062651
318	2.8587	-0.07885	-0.014378	0.16581	-0.10499	-0.2602	0.19425	-0.08193	-0.25561	0.21633	-0.046816	-0.15316	-0.008669	-0.046816	0.031938	-0.008669	0	0	0	-0.13918	0.029547	0.055319	-0.10625	0.024576	0.16982	-0.16273	-0.081241	0.062583
319	2.8677	-0.078817	-0.014387	0.16575	-0.10512	-0.26018	0.19421	-0.082078	-0.25559	0.2163	-0.046816	-0.15316	-0.008669	-0.046816	0.031938	-0.008669	0	0	0	-0.13915	0.029548	0.055253	-0.10625	0.024561	0.16976	-0.16271	-0.08124	0.062518
320	2.8768	-0.078786	-0.014394	0.16569	-0.10524	-0.26015	0.19416	-0.082227	-0.25557	0.21628	-0.046816	-0.15316	-0.008669	-0.046816	0.031938	-0.008669	0	0	0	-0.13912	0.029549	0.055189	-0.10624	0.024549	0.16971	-0.1627	-0.081238	0.062456
321	2.8858	-0.078759	-0.014401	0.16563	-0.10536	-0.26013	0.19412	-0.082377	-0.25555	0.21626	-0.046816	-0.15316	-0.008669	-0.046816	0.031938	-0.008669	0	0	0	-0.1391	0.029551	0.055128	-0.10624	0.024539	0.16965	-0.16268	-0.081235	0.062396
322	2.8948	-0.078735	-0.014406	0.16557	-0.10549	-0.2601	0.19408	-0.082528	-0.25552	0.21624	-0.046816	-0.15316	-0.008669	-0.046816	0.031938	-0.008669	0	0	0	-0.13907	0.029554	0.055069	-0.10624	0.024531	0.1696	-0.16267	-0.081232	0.062338
323	2.9038	-0.078714	-0.01441	0.16552	-0.10562	-0.26008	0.19404	-0.082681	-0.2555	0.21622	-0.046816	-0.15316	-0.008669	-0.046816	0.031938	-0.008669	0	0	0	-0.13905	0.029558	0.055012	-0.10624	0.024525	0.16955	-0.16266	-0.081228	0.062284
324	2.9128	-0.078698	-0.014413	0.16547	-0.10575	-0.26005	0.194	-0.082835	-0.25548	0.21621	-0.046816	-0.15316	-0.008669	-0.046816	0.031938	-0.008669	0	0	0	-0.13903	0.029563	0.054958	-0.10625	0.024521	0.1695	-0.16265	-0.081222	0.062232
325	2.9218	-0.078685	-0.014414	0.16542	-0.10589	-0.26002	0.19397	-0.08299	-0.25545	0.21619	-0.046816	-0.15316	-0.008669	-0.046816	0.031938	-0.008669	0	0	0	-0.13901	0.029568	0.054907	-0.10625	0.024519	0.16946	-0.16264	-0.081216	0.062182
326	2.9309	-0.078676	-0.014414	0.16538	-0.10602	-0.26	0.19393	-0.083148	-0.25543	0.21618	-0.046816	-0.15316	-0.008669	-0.046816	0.031938	-0.008669	0	0	0	-0.139	0.029575	0.054859	-0.10626	0.024519	0.16942	-0.16263	-0.081209	0.062135
327	2.9399	-0.078672	-0.014413	0.16534	-0.10616	-0.25997	0.1939	-0.083307	-0.25541	0.21617	-0.046816	-0.15316	-0.008669	-0.046816	0.031938	-0.008669	0	0	0	-0.13898	0.029582	0.054814	-0.10627	0.024522	0.16938	-0.16263	-0.081201	0.062091
328	2.9489	-0.078672	-0.01441	0.1653	-0.10631	-0.25995	0.19388	-0.083468	-0.25538	0.21616	-0.046816	-0.15316	-0.008669	-0.046816	0.031938	-0.008669	0	0	0	-0.13897	0.02959	0.054773	-0.10628	0.024526	0.16935	-0.16263	-0.081192	0.06205
329	2.9579	-0.078677	-0.014406	0.16527	-0.10645	-0.25992	0.19385	-0.083631	-0.25535	0.21615	-0.046816	-0.15316	-0.008669	-0.046816	0.031938	-0.008669	0	0	0	-0.13897	0.029599	0.054735	-0.1063	0.024533	0.16932	-0.16263	-0.081182	0.062012
330	2.9669	-0.078688	-0.0144	0.16524	-0.1066	-0.25989	0.19383	-0.083796	-0.25533	0.21614	-0.046816	-0.15316	-0.008669	-0.046816	0.031938	-0.008669	0	0	0	-0.13896	0.029609	0.0547	-0.10632	0.024543	0.16929	-0.16263	-0.081171	0.061977
331	2.976	-0.078703	-0.014393	0.16521	-0.10675	-0.25987	0.1938	-0.083963	-0.2553	0.21614	-0.046816	-0.15316	-0.008669	-0.046816	0.031938	-0.008669	0	0	0	-0.13896	0.02962	0.05467	-0.10634	0.024554	0.16927	-0.16264	-0.081159	0.061945
332	2.985	-0.078725	-0.014385	0.16519	-0.10691	-0.25984	0.19379	-0.084133	-0.25527	0.21613	-0.046816	-0.15316	-0.008669	-0.046816	0.031938	-0.008669	0	0	0	-0.13896	0.029632	0.054644	-0.10636	0.024568	0.16925	-0.16264	-0.081147	0.061916
333	2.994	-0.078752	-0.014375	0.16518	-0.10707	-0.25982	0.19377	-0.084306	-0.25524	0.21613	-0.046816	-0.15316	-0.008669	-0.046816	0.031938	-0.008669	0	0	0	-0.13897	0.029645	0.054621	-0.10639	0.024584	0.16924	-0.16265	-0.081133	0.06189
334	3.003	-0.078784	-0.014364	0.16517	-0.10724	-0.25979	0.19376	-0.084481	-0.25521	0.21613	-0.046816	-0.15316	-0.008669	-0.046816	0.031938	-0.008669	0	0	0	-0.13897	0.029659	0.054603	-0.10642	0.024602	0.16923	-0.16266	-0.081118	0.061867
335	3.012	-0.07882	-0.014353	0.16516	-0.1074	-0.25977	0.19374	-0.08466	-0.25518	0.21613	-0.046816	-0.15316	-0.008669	-0.046816	0.031938	-0.008669	0	0	0	-0.13898	0.029673	0.054586	-0.10645	0.024621	0.16922	-0.16268	-0.081102	0.061844
336	3.021	-0.078857	-0.014342	0.16515	-0.10758	-0.25974	0.19373	-0.084842	-0.25515	0.21613	-0.046816	-0.15316	-0.008669	-0.046816	0.031938	-0.008669	0	0	0	-0.13899	0.029688	0.054569	-0.10648	0.024641	0.16921	-0.16269	-0.081086	0.061822
337	3.0301	-0.078896	-0.014331	0.16514	-0.10776	-0.25971	0.19372	-0.085028	-0.25512	0.21613	-0.046816	-0.15316	-0.008669	-0.046816	0.031938	-0.008669	0	0	0	-0.139	0.029704	0.054551	-0.10652	0.02466	0.1692	-0.1627	-0.08107	0.061799
338	3.0391	-0.078936	-0.01432	0.16513	-0.10794	-0.25968	0.19371	-0.085218	-0.25508	0.21613	-0.046816	-0.15316	-0.008669	-0.046816	0.031938	-0.008669	0	0	0	-0.13901	0.02972	0.054533	-0.10655	0.02468	0.16919	-0.16272	-0.081052	0.061776
339	3.0481	-0.078978	-0.014309	0.16512	-0.10812	-0.25965	0.1937	-0.085411	-0.25505	0.21614	-0.046816	-0.15316	-0.008669	-0.046816	0.031938	-0.008669	0	0	0	-0.13902	0.029736	0.054515	-0.10659	0.0247	0.16918	-0.16273	-0.081034	0.061754
340	3.0571	-0.079021	-0.014298	0.16511	-0.10831	-0.25962	0.19369	-0.085607	-0.25501	0.21614	-0.046816	-0.15316	-0.008669	-0.046816	0.031938	-0.008669	0	0	0	-0.13903	0.029753	0.054497	-0.10662	0.02472	0.16917	-0.16274	-0.081016	0.061732
341	3.0661	-0.079066	-0.014287	0.1651	-0.1085	-0.25959	0.19369	-0.085806	-0.25498	0.21614	-0.046816	-0.15316	-0.008669	-0.046816	0.031938	-0.008669	0	0	0	-0.13904	0.029771	0.054479	-0.10666	0.024741	0.16916	-0.16276	-0.080997	0.061709
342	3.0752	-0.079112	-0.014276	0.16509	-0.1087	-0.25956	0.19368	-0.086007	-0.25494	0.21615	-0.046816	-0.15316	-0.008669	-0.046816	0.031938	-0.008669	0	0	0	-0.13905	0.029789	0.054461	-0.10669	0.024761	0.16915	-0.16277	-0.080978	0.061687
343	3.0842	-0.079159	-0.014266	0.16508	-0.10889	-0.25953	0.19368	-0.086211	-0.2549	0.21615	-0.046816	-0.15316	-0.008669	-0.046816	0.031938	-0.008669	0	0	0	-0.13906	0.029807	0.054443	-0.10673	0.024782	0.16915	-0.16278	-0.080959	0.061665
344	3.0932	-0.079207	-0.014255	0.16507	-0.10909	-0.2595	0.19367	-0.086417	-0.25486	0.21616	-0.046816	-0.15316	-0.008669	-0.046816	0.031938	-0.008669	0	0	0	-0.13906	0.029825	0.054424	-0.10677	0.024803	0.16914	-0.1628	-0.080939	0.061642
345	3.1022	-0.079257	-0.014244	0.16506	-0.1093	-0.25947	0.19367	-0.086626	-0.25483	0.21616	-0.046816	-0.15316	-0.008669	-0.046816	0.031938	-0.008669	0	0	0	-0.13907	0.029844	0.054406	-0.1068	0.024824	0.16913	-0.16281	-0.080919	0.061621
346	3.1112	-0.079307	-0.014234	0.16505	-0.1095	-0.25944	0.19367	-0.086836	-0.25479	0.21617	-0.046816	-0.15316	-0.008669	-0.046816	0.031938	-0.008669	0	0	0	-0.13908	0.029863	0.054387	-0.10684	0.024845	0.16912	-0.16283	-0.080898	0.061599
347	3.1202	-0.079359	-0.014223	0.16505	-0.10971	-0.25941	0.19367	-0.087047	-0.25475	0.21618	-0.046816	-0.15316	-0.008669	-0.046816	0.031938	-0.008669	0	0	0	-0.13909	0.029883	0.054369	-0.10688	0.024866	0.16911	-0.16284	-0.080878	0.061577
348	3.1293	-0.079411	-0.014213	0.16504	-0.10992	-0.25937	0.19367	-0.087261	-0.25471	0.21618	-0.046816	-0.15316	-0.008669	-0.046816	0.031938	-0.008669	0	0	0	-0.1391	0.029902	0.05435	-0.10692	0.024888	0.1691	-0.16285	-0.080857	0.061556
349	3.1383	-0.079464	-0.014202	0.16503	-0.11013	-0.25934	0.19367	-0.087475	-0.25467	0.21619	-0.046816	-0.15316	-0.008669	-0.046816	0.031938	-0.008669	0	0	0	-0.13911	0.029922	0.054332	-0.10696	0.024909	0.16909	-0.16287	-0.080836	0.061534
350	3.1473	-0.079518	-0.014191	0.16502	-0.11034	-0.25931	0.19367	-0.087691	-0.25463	0.2162	-0.046816	-0.15316	-0.008669	-0.046816	0.031938	-0.008669	0	0	0	-0.13913	0.029942	0.054313	-0.107	0.024931	0.16908	-0.16288	-0.080814	0.061514
